# xmcd CD database file
#
# Track frame offsets:
#	150
#	24350
#	43532
#	64777
#	82257
#	108315
#	125787
#	146317
#	168740
#	193545
#
# Disc length: 2791 seconds
#
# Revision: 2
# Processed by: cddbd v1.5.2PL0 Copyright (c) Steve Scherf et al.
# Submitted via: CDex 1.70beta3
#
DISCID=8a0ae50a
DTITLE=亜波根綾乃 - Re・Birth
DYEAR=1999
DGENRE=JPop
TTITLE0=My home
TTITLE1=Birth（生まれ変わりたい）
TTITLE2=生きる足音
TTITLE3=7Days
TTITLE4=砂の海
TTITLE5=夜空の中へ～祈り～
TTITLE6=草臥れた僕達
TTITLE7=永遠の次の日
TTITLE8=星の声
TTITLE9=All my life
EXTD=YEAR: 1999
EXTT0=
EXTT1=
EXTT2=
EXTT3=
EXTT4=
EXTT5=
EXTT6=
EXTT7=
EXTT8=
EXTT9=
PLAYORDER=
